<svg version="1.1" id="Layer_1" xmlns="http://www.w3.org/2000/svg" xmlns:xlink="http://www.w3.org/1999/xlink" x="0px" y="0px"
	 width="100%" viewBox="0 0 628 628" enable-background="new 0 0 628 628" xml:space="preserve">
<path fill="#020202" opacity="1.000000" stroke="none" 
	d="
M628.000000,629.000000 
	C419.046661,629.000000 210.093338,629.000000 1.069998,629.000000 
	C1.069998,419.760101 1.069998,210.520157 1.069998,1.140108 
	C210.333267,1.140108 419.666626,1.140108 629.000000,1.140108 
	C629.000000,11.743713 629.000000,22.407972 628.598938,33.695133 
	C628.132996,36.310547 628.011414,38.303059 628.011292,40.295574 
	C628.001648,236.530380 628.001099,432.765198 628.000000,629.000000 
M623.840088,554.500061 
	C623.840088,549.334229 623.837036,544.168396 623.840637,539.002563 
	C623.893555,462.689209 623.961365,386.375854 623.933960,310.062531 
	C623.933167,307.747833 623.649536,304.841797 622.293030,303.217590 
	C614.965637,294.443909 607.525940,285.730774 599.617371,277.483490 
	C588.166992,265.542694 576.593262,253.684601 564.494385,242.411285 
	C552.735596,231.454834 540.305054,221.213501 528.061157,210.785400 
	C519.889771,203.825867 511.941681,196.497513 503.168304,190.373306 
	C483.580658,176.700302 463.975372,162.958115 443.566406,150.581207 
	C420.533997,136.613358 396.878204,123.603119 372.999115,111.122360 
	C351.152374,99.703819 328.011993,91.065590 304.292816,84.366814 
	C287.024628,79.489914 269.450195,75.610649 251.267960,75.974716 
	C244.105637,76.118134 236.937973,75.984192 229.772903,76.012634 
	C228.637054,76.017143 227.501968,76.213127 226.099579,76.345848 
	C229.393356,78.281502 232.373276,79.725334 235.012405,81.639137 
	C244.318207,88.387383 254.172714,94.574539 262.578583,102.320663 
	C274.105774,112.943146 282.290375,126.068260 288.886993,140.539658 
	C294.354980,152.535034 297.041809,164.799179 297.994202,177.576538 
	C298.647308,186.338959 297.572998,195.224060 298.113464,204.002426 
	C298.875488,216.380203 296.543793,228.242599 291.934143,239.407837 
	C286.379791,252.861313 279.832458,265.945343 273.073151,278.853180 
	C253.267105,316.675629 226.048645,348.614258 194.082321,376.636688 
	C173.525787,394.657043 151.446457,410.687042 126.827881,422.602966 
	C101.121605,435.045319 74.650826,445.805664 46.350460,451.128082 
	C35.505398,453.167664 24.653246,455.203003 13.750051,456.889343 
	C5.191511,458.213074 5.154404,457.973206 5.154403,466.743134 
	C5.154399,517.232788 5.154401,567.722412 5.154401,618.212036 
	C5.154401,619.977844 5.154401,621.743652 5.154401,623.553528 
	C211.636490,623.553528 417.523712,623.553528 623.840088,623.553528 
	C623.840088,600.732361 623.840088,578.116272 623.840088,554.500061 
M248.480576,95.999359 
	C242.644577,92.206345 237.095032,87.838478 230.905762,84.754410 
	C221.510132,80.072624 212.259262,75.689011 200.900833,75.777710 
	C137.763351,76.270737 74.620041,76.014275 11.478722,76.014275 
	C9.530257,76.014275 7.581793,76.014275 5.324410,76.014275 
	C5.324410,202.146255 5.324410,327.668213 5.324410,454.010345 
	C20.232786,451.081879 35.100014,449.206482 49.328182,445.110962 
	C68.555794,439.576324 87.549316,432.988281 106.171783,425.654907 
	C127.363258,417.309875 147.116425,405.950439 165.711411,392.761749 
	C184.973328,379.099945 203.284332,364.308380 218.479599,346.019836 
	C227.575378,335.072449 237.325363,324.612732 245.740906,313.168762 
	C259.324829,294.696442 271.156921,275.100647 280.534515,254.058228 
	C288.397003,236.415543 292.928314,218.083450 292.878662,198.802261 
	C292.853821,189.160934 292.114014,179.468369 290.934875,169.892914 
	C287.210022,139.644424 273.118408,115.162727 248.480576,95.999359 
M518.672302,196.848694 
	C521.636475,199.243591 524.665100,201.563477 527.553467,204.046463 
	C539.994263,214.740738 552.842590,225.012726 564.695557,236.325882 
	C579.704895,250.651642 593.926514,265.805084 608.416016,280.671600 
	C613.447205,285.833740 618.263977,291.204834 623.622681,296.957062 
	C623.622681,222.898102 623.622681,149.711792 623.622681,76.271606 
	C514.865967,76.271606 406.477386,76.271606 296.762512,76.271606 
	C299.253784,77.146950 300.574249,77.652161 301.919952,78.077637 
	C327.914368,86.296623 353.318359,96.004280 377.870300,107.908600 
	C412.867859,124.877586 446.541962,144.123413 478.255554,166.664902 
	C491.762756,176.265579 504.818390,186.501556 518.672302,196.848694 
M298.499939,69.854240 
	C406.909851,69.854240 515.319763,69.854240 623.595825,69.854240 
	C623.595825,57.728813 623.595825,46.279404 623.595825,34.601505 
	C621.337708,34.601505 619.345093,34.601505 617.352478,34.601505 
	C545.356934,34.601505 473.361420,34.597504 401.365906,34.616558 
	C398.570557,34.617298 395.689056,34.440788 392.994171,35.023750 
	C377.610199,38.351612 362.262939,41.851063 346.917664,45.355442 
	C316.148010,52.382278 285.386780,59.446239 254.624130,66.503777 
	C248.252274,67.965599 241.889297,69.466156 235.522247,70.948860 
	C235.483597,70.583984 235.444946,70.219116 235.406296,69.854240 
	C256.104187,69.854240 276.802063,69.854240 298.499939,69.854240 
M201.388550,69.873840 
	C207.172348,70.913330 211.168106,68.383209 215.155594,64.267563 
	C221.950195,57.254551 229.470932,50.948505 236.617462,44.271431 
	C239.827301,41.272442 242.870331,38.094906 246.365616,34.624512 
	C165.631592,34.624512 85.593613,34.624512 5.360518,34.624512 
	C5.360518,46.410759 5.360518,57.973160 5.360518,69.873833 
	C70.535217,69.873833 135.476151,69.873833 201.388550,69.873840 
M211.500000,30.006435 
	C220.995377,30.006435 230.510086,29.633284 239.979996,30.124435 
	C247.563904,30.517769 254.010437,29.524960 259.484314,23.473406 
	C265.187561,17.168316 271.688293,11.584622 277.990845,5.541176 
	C186.996475,5.541176 96.309891,5.541176 5.521080,5.541176 
	C5.521080,13.707498 5.521080,21.627256 5.521080,30.006435 
	C73.994400,30.006435 142.247208,30.006435 211.500000,30.006435 
M317.500000,5.004858 
	C308.004700,5.004914 298.507507,4.907880 289.015717,5.090350 
	C287.207489,5.125111 285.003510,5.799318 283.694305,6.972947 
	C277.263336,12.738044 270.971802,18.668867 264.819366,24.732220 
	C253.817551,35.574711 242.969711,46.573257 232.014114,57.462929 
	C229.280487,60.180096 226.381409,62.730782 223.253510,65.641701 
	C314.221008,45.563576 404.596191,25.616186 494.971344,5.668800 
	C494.939880,5.447490 494.908447,5.226180 494.876984,5.004870 
	C436.084656,5.004870 377.292328,5.004870 317.500000,5.004858 
M500.500000,30.005831 
	C541.423401,30.005831 582.346802,30.005831 623.338074,30.005831 
	C623.338074,21.475660 623.338074,13.439061 623.338074,5.300694 
	C588.843933,5.300694 554.701172,5.300382 520.558411,5.302994 
	C519.893005,5.303045 519.203491,5.229669 518.565674,5.371847 
	C506.827423,7.988453 495.089874,10.608886 483.363190,13.276818 
	C465.705811,17.294044 448.042542,21.287519 430.413971,25.428043 
	C425.711914,26.532438 421.127014,28.135498 416.488312,29.509619 
	C416.516449,29.675022 416.544556,29.840427 416.572693,30.005831 
	C444.215118,30.005831 471.857574,30.005831 500.500000,30.005831 
z"/>
<path fill="#FFFFFF" opacity="1.000000" stroke="none" 
	d="
M628.500000,629.000000 
	C628.001099,432.765198 628.001648,236.530380 628.011292,40.295574 
	C628.011414,38.303059 628.132996,36.310547 628.598938,34.159019 
	C629.000000,232.333328 629.000000,430.666656 628.500000,629.000000 
z"/>
<path fill="#FEFEFE" opacity="1.000000" stroke="none" 
	d="
M623.840088,555.000122 
	C623.840088,578.116272 623.840088,600.732361 623.840088,623.553528 
	C417.523712,623.553528 211.636490,623.553528 5.154401,623.553528 
	C5.154401,621.743652 5.154401,619.977844 5.154401,618.212036 
	C5.154401,567.722412 5.154399,517.232788 5.154403,466.743134 
	C5.154404,457.973206 5.191511,458.213074 13.750051,456.889343 
	C24.653246,455.203003 35.505398,453.167664 46.350460,451.128082 
	C74.650826,445.805664 101.121605,435.045319 126.827881,422.602966 
	C151.446457,410.687042 173.525787,394.657043 194.082321,376.636688 
	C226.048645,348.614258 253.267105,316.675629 273.073151,278.853180 
	C279.832458,265.945343 286.379791,252.861313 291.934143,239.407837 
	C296.543793,228.242599 298.875488,216.380203 298.113464,204.002426 
	C297.572998,195.224060 298.647308,186.338959 297.994202,177.576538 
	C297.041809,164.799179 294.354980,152.535034 288.886993,140.539658 
	C282.290375,126.068260 274.105774,112.943146 262.578583,102.320663 
	C254.172714,94.574539 244.318207,88.387383 235.012405,81.639137 
	C232.373276,79.725334 229.393356,78.281502 226.099579,76.345848 
	C227.501968,76.213127 228.637054,76.017143 229.772903,76.012634 
	C236.937973,75.984192 244.105637,76.118134 251.267960,75.974716 
	C269.450195,75.610649 287.024628,79.489914 304.292816,84.366814 
	C328.011993,91.065590 351.152374,99.703819 372.999115,111.122360 
	C396.878204,123.603119 420.533997,136.613358 443.566406,150.581207 
	C463.975372,162.958115 483.580658,176.700302 503.168304,190.373306 
	C511.941681,196.497513 519.889771,203.825867 528.061157,210.785400 
	C540.305054,221.213501 552.735596,231.454834 564.494385,242.411285 
	C576.593262,253.684601 588.166992,265.542694 599.617371,277.483490 
	C607.525940,285.730774 614.965637,294.443909 622.293030,303.217590 
	C623.649536,304.841797 623.933167,307.747833 623.933960,310.062531 
	C623.961365,386.375854 623.893555,462.689209 623.840637,539.002563 
	C623.837036,544.168396 623.840088,549.334229 623.840088,555.000122 
z"/>
<path fill="#123743" opacity="1.000000" stroke="none" 
	d="
M248.754761,96.230164 
	C273.118408,115.162727 287.210022,139.644424 290.934875,169.892914 
	C292.114014,179.468369 292.853821,189.160934 292.878662,198.802261 
	C292.928314,218.083450 288.397003,236.415543 280.534515,254.058228 
	C271.156921,275.100647 259.324829,294.696442 245.740906,313.168762 
	C237.325363,324.612732 227.575378,335.072449 218.479599,346.019836 
	C203.284332,364.308380 184.973328,379.099945 165.711411,392.761749 
	C147.116425,405.950439 127.363258,417.309875 106.171783,425.654907 
	C87.549316,432.988281 68.555794,439.576324 49.328182,445.110962 
	C35.100014,449.206482 20.232786,451.081879 5.324410,454.010345 
	C5.324410,327.668213 5.324410,202.146255 5.324410,76.014275 
	C7.581793,76.014275 9.530257,76.014275 11.478722,76.014275 
	C74.620041,76.014275 137.763351,76.270737 200.900833,75.777710 
	C212.259262,75.689011 221.510132,80.072624 230.905762,84.754410 
	C237.095032,87.838478 242.644577,92.206345 248.754761,96.230164 
z"/>
<path fill="#123743" opacity="1.000000" stroke="none" 
	d="
M518.375732,196.648773 
	C504.818390,186.501556 491.762756,176.265579 478.255554,166.664902 
	C446.541962,144.123413 412.867859,124.877586 377.870300,107.908600 
	C353.318359,96.004280 327.914368,86.296623 301.919952,78.077637 
	C300.574249,77.652161 299.253784,77.146950 296.762512,76.271606 
	C406.477386,76.271606 514.865967,76.271606 623.622681,76.271606 
	C623.622681,149.711792 623.622681,222.898102 623.622681,296.957062 
	C618.263977,291.204834 613.447205,285.833740 608.416016,280.671600 
	C593.926514,265.805084 579.704895,250.651642 564.695557,236.325882 
	C552.842590,225.012726 539.994263,214.740738 527.553467,204.046463 
	C524.665100,201.563477 521.636475,199.243591 518.375732,196.648773 
z"/>
<path fill="#FBFBFA" opacity="1.000000" stroke="none" 
	d="
M297.999939,69.854240 
	C276.802063,69.854240 256.104187,69.854240 235.406296,69.854240 
	C235.444946,70.219116 235.483597,70.583984 235.522247,70.948860 
	C241.889297,69.466156 248.252274,67.965599 254.624130,66.503777 
	C285.386780,59.446239 316.148010,52.382278 346.917664,45.355442 
	C362.262939,41.851063 377.610199,38.351612 392.994171,35.023750 
	C395.689056,34.440788 398.570557,34.617298 401.365906,34.616558 
	C473.361420,34.597504 545.356934,34.601505 617.352478,34.601505 
	C619.345093,34.601505 621.337708,34.601505 623.595825,34.601505 
	C623.595825,46.279404 623.595825,57.728813 623.595825,69.854240 
	C515.319763,69.854240 406.909851,69.854240 297.999939,69.854240 
z"/>
<path fill="#F9FAF9" opacity="1.000000" stroke="none" 
	d="
M200.902817,69.873840 
	C135.476151,69.873833 70.535217,69.873833 5.360518,69.873833 
	C5.360518,57.973160 5.360518,46.410759 5.360518,34.624512 
	C85.593613,34.624512 165.631592,34.624512 246.365616,34.624512 
	C242.870331,38.094906 239.827301,41.272442 236.617462,44.271431 
	C229.470932,50.948505 221.950195,57.254551 215.155594,64.267563 
	C211.168106,68.383209 207.172348,70.913330 200.902817,69.873840 
z"/>
<path fill="#FAFAFA" opacity="1.000000" stroke="none" 
	d="
M211.000000,30.006435 
	C142.247208,30.006435 73.994400,30.006435 5.521080,30.006435 
	C5.521080,21.627256 5.521080,13.707498 5.521080,5.541176 
	C96.309891,5.541176 186.996475,5.541176 277.990845,5.541176 
	C271.688293,11.584622 265.187561,17.168316 259.484314,23.473406 
	C254.010437,29.524960 247.563904,30.517769 239.979996,30.124435 
	C230.510086,29.633284 220.995377,30.006435 211.000000,30.006435 
z"/>
<path fill="#0D242C" opacity="1.000000" stroke="none" 
	d="
M318.000000,5.004864 
	C377.292328,5.004870 436.084656,5.004870 494.876984,5.004870 
	C494.908447,5.226180 494.939880,5.447490 494.971344,5.668800 
	C404.596191,25.616186 314.221008,45.563576 223.253510,65.641701 
	C226.381409,62.730782 229.280487,60.180096 232.014114,57.462929 
	C242.969711,46.573257 253.817551,35.574711 264.819366,24.732220 
	C270.971802,18.668867 277.263336,12.738044 283.694305,6.972947 
	C285.003510,5.799318 287.207489,5.125111 289.015717,5.090350 
	C298.507507,4.907880 308.004700,5.004914 318.000000,5.004864 
z"/>
<path fill="#FAFAFB" opacity="1.000000" stroke="none" 
	d="
M500.000000,30.005831 
	C471.857574,30.005831 444.215118,30.005831 416.572693,30.005831 
	C416.544556,29.840427 416.516449,29.675022 416.488312,29.509619 
	C421.127014,28.135498 425.711914,26.532438 430.413971,25.428043 
	C448.042542,21.287519 465.705811,17.294044 483.363190,13.276818 
	C495.089874,10.608886 506.827423,7.988453 518.565674,5.371847 
	C519.203491,5.229669 519.893005,5.303045 520.558411,5.302994 
	C554.701172,5.300382 588.843933,5.300694 623.338074,5.300694 
	C623.338074,13.439061 623.338074,21.475660 623.338074,30.005831 
	C582.346802,30.005831 541.423401,30.005831 500.000000,30.005831 
z"/>
</svg>